<svg width="17" height="19" viewBox="0 0 17 19" fill="none" xmlns="http://www.w3.org/2000/svg">
<g clip-path="url(#clip0_1_233)">
<path d="M14.8444 16.625H1.78185C1.62438 16.625 1.47336 16.6876 1.36201 16.7989C1.25066 16.9103 1.1881 17.0613 1.1881 17.2188V18.4062C1.1881 18.5637 1.25066 18.7147 1.36201 18.8261C1.47336 18.9374 1.62438 19 1.78185 19H14.8444C15.0018 19 15.1528 18.9374 15.2642 18.8261C15.3755 18.7147 15.4381 18.5637 15.4381 18.4062V17.2188C15.4381 17.0613 15.3755 16.9103 15.2642 16.7989C15.1528 16.6876 15.0018 16.625 14.8444 16.625ZM15.4381 5.9375H9.5006V4.15625H10.985C11.0637 4.15625 11.1392 4.12497 11.1949 4.0693C11.2506 4.01362 11.2819 3.93811 11.2819 3.85938V2.07812C11.2819 1.99939 11.2506 1.92388 11.1949 1.8682C11.1392 1.81253 11.0637 1.78125 10.985 1.78125H9.5006V0.296875C9.5006 0.218139 9.46933 0.142628 9.41365 0.0869527C9.35798 0.0312778 9.28246 0 9.20373 0L7.42248 0C7.34374 0 7.26823 0.0312778 7.21256 0.0869527C7.15688 0.142628 7.1256 0.218139 7.1256 0.296875V1.78125H5.64123C5.56249 1.78125 5.48698 1.81253 5.43131 1.8682C5.37563 1.92388 5.34435 1.99939 5.34435 2.07812V3.85938C5.34435 3.93811 5.37563 4.01362 5.43131 4.0693C5.48698 4.12497 5.56249 4.15625 5.64123 4.15625H7.1256V5.9375H1.1881C1.00193 5.93764 0.818396 5.98156 0.652321 6.06571C0.486246 6.14985 0.342282 6.27186 0.23205 6.4219C0.121819 6.57193 0.0484077 6.74578 0.0177438 6.92941C-0.0129201 7.11304 2.20143e-05 7.30131 0.0555255 7.47902L2.76748 15.4375H13.8587L16.5707 7.47902C16.6262 7.30131 16.6391 7.11304 16.6085 6.92941C16.5778 6.74578 16.5044 6.57193 16.3942 6.4219C16.2839 6.27186 16.14 6.14985 15.9739 6.06571C15.8078 5.98156 15.6243 5.93764 15.4381 5.9375Z" fill="#F2F2F2"/>
</g>
<defs>
<clipPath id="clip0_1_233">
<rect width="16.625" height="19" fill="white"/>
</clipPath>
</defs>
</svg>
