<svg width="32" height="32" viewBox="0 0 32 32" fill="none" xmlns="http://www.w3.org/2000/svg">
<path d="M16 26.6667C21.6456 26.6667 26.2222 22.09 26.2222 16.4445C26.2222 10.7989 21.6456 6.22223 16 6.22223C10.3544 6.22223 5.77779 10.7989 5.77779 16.4445C5.77779 22.09 10.3544 26.6667 16 26.6667Z" fill="#3F3F3F"/>
<path d="M16 24.8889C20.9092 24.8889 24.8889 20.9092 24.8889 16C24.8889 11.0908 20.9092 7.11111 16 7.11111C11.0908 7.11111 7.11111 11.0908 7.11111 16C7.11111 20.9092 11.0908 24.8889 16 24.8889Z" fill="#E27022"/>
<path d="M21.9046 13.6C21.8836 13.4552 21.8198 13.32 21.7215 13.2117C21.6231 13.1034 21.4947 13.027 21.3526 12.9921C21.2105 12.9573 21.0613 12.9656 20.924 13.0161C20.7867 13.0666 20.6676 13.157 20.5819 13.2756C20.0299 13.7116 19.6286 14.3098 19.4344 14.9859C19.2402 15.662 19.2629 16.3819 19.4993 17.0445L19.3335 17.7191C19.3194 17.7723 19.3161 17.8278 19.3239 17.8823C19.3317 17.9368 19.3504 17.9892 19.3789 18.0363C19.4074 18.0834 19.4451 18.1242 19.4898 18.1564C19.5344 18.1886 19.5851 18.2114 19.6388 18.2236L20.4486 18.4222C20.5018 18.4364 20.5573 18.4396 20.6118 18.4318C20.6663 18.424 20.7187 18.4053 20.7658 18.3768C20.8128 18.3483 20.8537 18.3106 20.8859 18.2659C20.9181 18.2213 20.9409 18.1706 20.9531 18.1169L21.1188 17.4422C21.6354 16.9645 21.989 16.3367 22.13 15.6473C22.271 14.958 22.1921 14.2418 21.9046 13.5996V13.6Z" fill="#F4AA41" stroke="#F4AA41" stroke-width="0.4" stroke-miterlimit="10"/>
<path d="M19.288 20.1347C19.3541 20.1517 19.4235 20.1522 19.4898 20.136C19.5562 20.1199 19.6175 20.0877 19.6685 20.0422C19.6926 20.106 19.732 20.1629 19.7833 20.2079C19.8347 20.2528 19.8963 20.2845 19.9627 20.3C20.0164 20.3148 20.0725 20.3186 20.1277 20.3114C20.183 20.3041 20.2362 20.2858 20.2842 20.2576C20.3323 20.2295 20.3742 20.1919 20.4075 20.1473C20.4408 20.1026 20.4648 20.0517 20.4781 19.9976C20.4914 19.9435 20.4938 19.8873 20.485 19.8323C20.4762 19.7773 20.4565 19.7246 20.427 19.6774C20.3975 19.6301 20.3588 19.5892 20.3133 19.5572C20.2677 19.5251 20.2162 19.5025 20.1618 19.4907L20.3605 18.6809L19.6858 18.5151L19.4867 19.3249C19.3793 19.2985 19.2658 19.3159 19.1713 19.3732C19.0767 19.4305 19.0088 19.5231 18.9825 19.6304C18.9561 19.7378 18.9735 19.8513 19.0308 19.9458C19.0881 20.0404 19.1806 20.1083 19.288 20.1347Z" fill="white" stroke="white" stroke-width="0.4" stroke-miterlimit="10"/>
<path d="M16.8889 12C17.6253 12 18.2222 11.403 18.2222 10.6667C18.2222 9.93028 17.6253 9.33333 16.8889 9.33333C16.1525 9.33333 15.5556 9.93028 15.5556 10.6667C15.5556 11.403 16.1525 12 16.8889 12Z" fill="#F4AA41" stroke="#F4AA41" stroke-width="0.4" stroke-miterlimit="10"/>
<path d="M11.1111 18.6667C11.602 18.6667 12 18.2687 12 17.7778C12 17.2869 11.602 16.8889 11.1111 16.8889C10.6202 16.8889 10.2222 17.2869 10.2222 17.7778C10.2222 18.2687 10.6202 18.6667 11.1111 18.6667Z" fill="#F4AA41" stroke="#F4AA41" stroke-width="0.4" stroke-miterlimit="10"/>
<path d="M17.1111 16.6667C17.602 16.6667 18 16.2687 18 15.7778C18 15.2869 17.602 14.8889 17.1111 14.8889C16.6202 14.8889 16.2222 15.2869 16.2222 15.7778C16.2222 16.2687 16.6202 16.6667 17.1111 16.6667Z" fill="#F4AA41" stroke="#F4AA41" stroke-width="0.4" stroke-miterlimit="10"/>
<path d="M17.1512 21.4036C16.8891 21.7546 16.5226 22.0135 16.1042 22.1432C15.6858 22.2729 15.2371 22.2668 14.8225 22.1256C14.4078 21.9844 14.0486 21.7154 13.7963 21.3573C13.544 20.9992 13.4117 20.5704 13.4183 20.1324C13.2639 20.4079 13.1744 20.715 13.1568 21.0302C13.1392 21.3455 13.1938 21.6607 13.3165 21.9516C13.4392 22.2426 13.6268 22.5016 13.8649 22.7091C14.103 22.9165 14.3853 23.0668 14.6903 23.1484C14.9953 23.2301 15.315 23.241 15.6249 23.1803C15.9348 23.1196 16.2267 22.9889 16.4784 22.7982C16.73 22.6075 16.9348 22.3618 17.0771 22.0799C17.2193 21.798 17.2953 21.4873 17.2992 21.1716C17.255 21.2521 17.2056 21.3296 17.1512 21.4036Z" fill="#5C9E31" stroke="#5C9E31" stroke-width="0.4" stroke-linejoin="round"/>
<path d="M11.1045 13.5027C11.4077 13.3389 11.7551 13.2754 12.0967 13.3213C12.4383 13.3673 12.7565 13.5204 13.0057 13.7585C13.2549 13.9967 13.4221 14.3077 13.4835 14.6468C13.5448 14.986 13.4971 15.3359 13.3472 15.6462C13.5488 15.5009 13.7146 15.3114 13.8318 15.0921C13.9491 14.8729 14.0146 14.6298 14.0235 14.3814C14.0324 14.1329 13.9844 13.8857 13.8832 13.6587C13.7819 13.4316 13.6301 13.2307 13.4394 13.0713C13.2486 12.9119 13.0239 12.7982 12.7825 12.7389C12.5411 12.6796 12.2893 12.6763 12.0464 12.7292C11.8035 12.7821 11.5759 12.8898 11.381 13.0441C11.1861 13.1984 11.029 13.3953 10.9218 13.6196C10.9801 13.5766 11.0411 13.5376 11.1045 13.5027Z" fill="#5C9E31" stroke="#5C9E31" stroke-width="0.4" stroke-linecap="round" stroke-linejoin="round"/>
<path d="M16 26.2222C21.6456 26.2222 26.2222 21.6456 26.2222 16C26.2222 10.3544 21.6456 5.77777 16 5.77777C10.3544 5.77777 5.77779 10.3544 5.77779 16C5.77779 21.6456 10.3544 26.2222 16 26.2222Z" stroke="black" stroke-width="0.5" stroke-miterlimit="10"/>
<path d="M26.6667 14.6667C27.4031 14.6667 28 15.4622 28 16.4444C28 17.4267 27.4031 18.2222 26.6667 18.2222" stroke="black" stroke-width="0.5" stroke-linecap="round" stroke-linejoin="round"/>
<path d="M5.33333 14.6667C4.59689 14.6667 4 15.4622 4 16.4444C4 17.4267 4.59689 18.2222 5.33333 18.2222" stroke="black" stroke-width="0.5" stroke-linecap="round" stroke-linejoin="round"/>
<path d="M13.4178 20.1324C13.2636 20.4079 13.1743 20.7149 13.1568 21.0301C13.1392 21.3454 13.1939 21.6604 13.3167 21.9513C13.4394 22.2421 13.627 22.5011 13.8651 22.7084C14.1031 22.9158 14.3854 23.066 14.6904 23.1476C14.9953 23.2293 15.3149 23.2402 15.6247 23.1795C15.9346 23.1189 16.2264 22.9882 16.4781 22.7976C16.7297 22.607 16.9345 22.3614 17.0768 22.0796C17.2191 21.7978 17.2952 21.4872 17.2992 21.1716C17.2549 21.2521 17.2053 21.3296 17.1507 21.4036" stroke="black" stroke-width="0.4" stroke-linecap="round" stroke-linejoin="round"/>
<path d="M13.3467 15.6467C13.5484 15.5013 13.7141 15.3118 13.8314 15.0927C13.9486 14.8735 14.0142 14.6304 14.0231 14.382C14.032 14.1336 13.9841 13.8865 13.8829 13.6594C13.7817 13.4324 13.63 13.2315 13.4393 13.0721C13.2487 12.9126 13.0241 12.7989 12.7827 12.7395C12.5413 12.6801 12.2896 12.6767 12.0467 12.7295C11.8038 12.7823 11.5762 12.8898 11.3812 13.044C11.1863 13.1982 11.0291 13.3949 10.9218 13.6191C10.9801 13.5763 11.0411 13.5374 11.1045 13.5027" stroke="black" stroke-width="0.4" stroke-linecap="round" stroke-linejoin="round"/>
<path d="M20.4489 18.4222C20.502 18.4363 20.5575 18.4395 20.6119 18.4317C20.6664 18.4238 20.7187 18.4051 20.7657 18.3766C20.8128 18.3481 20.8536 18.3104 20.8857 18.2658C20.9179 18.2212 20.9407 18.1705 20.9529 18.1169L21.1186 17.4418C21.6351 16.964 21.9887 16.3363 22.1296 15.6471C22.2706 14.9578 22.1918 14.2417 21.9044 13.5995C21.8818 13.4554 21.8175 13.3211 21.7194 13.2131C21.6213 13.1051 21.4937 13.0283 21.3524 12.992" stroke="black" stroke-width="0.4" stroke-linecap="round" stroke-linejoin="round"/>
<path d="M20.2583 20.2667C20.3105 20.2389 20.3561 20.2002 20.3922 20.1533C20.4282 20.1064 20.4538 20.0523 20.4672 19.9947C20.4812 19.9415 20.4844 19.886 20.4766 19.8315C20.4687 19.777 20.4499 19.7247 20.4214 19.6777C20.3928 19.6306 20.3551 19.5898 20.3104 19.5577C20.2658 19.5255 20.2151 19.5027 20.1614 19.4907L20.3605 18.6809" fill="white"/>
<path d="M20.2583 20.2667C20.3105 20.2389 20.3561 20.2002 20.3922 20.1533C20.4282 20.1064 20.4538 20.0523 20.4672 19.9947C20.4812 19.9415 20.4844 19.886 20.4766 19.8315C20.4687 19.777 20.4499 19.7247 20.4214 19.6777C20.3928 19.6306 20.3551 19.5898 20.3104 19.5577C20.2658 19.5255 20.2151 19.5027 20.1614 19.4907L20.3605 18.6809" stroke="black" stroke-width="0.4" stroke-linecap="round" stroke-linejoin="round"/>
<path d="M16.8889 9.33333C17.2425 9.33333 17.5817 9.4738 17.8317 9.72385C18.0817 9.9739 18.2222 10.313 18.2222 10.6667C18.2222 11.0203 18.0817 11.3594 17.8317 11.6095C17.5817 11.8595 17.2425 12 16.8889 12" stroke="black" stroke-width="0.4" stroke-linecap="round" stroke-linejoin="round"/>
<path d="M17.1111 16.6667C16.8754 16.6667 16.6493 16.573 16.4826 16.4063C16.3159 16.2396 16.2222 16.0135 16.2222 15.7778C16.2222 15.542 16.3159 15.3159 16.4826 15.1492C16.6493 14.9825 16.8754 14.8889 17.1111 14.8889" stroke="black" stroke-width="0.4" stroke-linecap="round" stroke-linejoin="round"/>
<path d="M11.1111 18.6667C10.8754 18.6667 10.6493 18.573 10.4826 18.4063C10.3159 18.2396 10.2222 18.0135 10.2222 17.7778C10.2222 17.542 10.3159 17.3159 10.4826 17.1492C10.6493 16.9825 10.8754 16.8889 11.1111 16.8889" stroke="black" stroke-width="0.4" stroke-linecap="round" stroke-linejoin="round"/>
</svg>
