<svg width="14" height="18" viewBox="0 0 14 18" fill="none" xmlns="http://www.w3.org/2000/svg">
<path d="M13.09 7.5V6H4.59V1.5C4.59 1.10218 4.43196 0.720644 4.15066 0.43934C3.86935 0.158035 3.48782 0 3.09 0C2.69217 0 2.31064 0.158035 2.02934 0.43934C1.74803 0.720644 1.59 1.10218 1.59 1.5C1.59 1.89782 1.74803 2.27936 2.02934 2.56066C2.31064 2.84196 2.69217 3 3.09 3V6H0.0899963V7.5H3.09V13.7C3.09 16.06 5 17.97 7.34 18C9.68 17.96 11.54 16.04 11.5 13.7C11.5 12.11 10.75 10.61 9.5 9.62C9.28352 9.43958 9.04893 9.28207 8.8 9.15C8.58 9.05 8.34 9 8.1 9C7.39 9 6.74 9.39 6.39 10C6.2 10.3 6.1 10.65 6.1 11C6.11 12.1 7 13 8.11 13C8.73 13 9.31 12.69 9.69 12.2C9.9 12.67 10 13.18 10 13.7C10.04 15.2 8.86 16.45 7.34 16.5C5.81 16.5 4.58 15.23 4.59 13.7V7.5H13.09Z" fill="#828282"/>
</svg>
