<svg width="57" height="65" viewBox="0 0 57 65" fill="none" xmlns="http://www.w3.org/2000/svg">
<g style="mix-blend-mode:exclusion">
<ellipse cx="19.1069" cy="32.8437" rx="12.6449" ry="12.3122" transform="rotate(-30 19.1069 32.8437)" fill="#EB5757"/>
</g>
<g style="mix-blend-mode:exclusion">
<circle cx="38.5191" cy="32.4664" r="12.6449" transform="rotate(-30 38.5191 32.4664)" fill="#F2F2F2"/>
</g>
<g style="mix-blend-mode:exclusion">
<ellipse cx="28.6789" cy="16.9851" rx="12.6449" ry="12.3122" transform="rotate(-30 28.6789 16.9851)" fill="#F2C94C"/>
</g>
<path d="M6.352 60.464C6.24533 60.208 6.10133 59.8827 5.92 59.488C5.74933 59.0933 5.56267 58.6667 5.36 58.208C5.15733 57.7493 4.93867 57.28 4.704 56.8C4.48 56.3093 4.26667 55.8507 4.064 55.424C3.86133 54.9867 3.66933 54.5973 3.488 54.256C3.31733 53.9147 3.17867 53.6533 3.072 53.472C2.95467 54.7307 2.85867 56.096 2.784 57.568C2.70933 59.0293 2.64533 60.5067 2.592 62H1.072C1.11467 61.04 1.16267 60.0747 1.216 59.104C1.26933 58.1227 1.328 57.1627 1.392 56.224C1.46667 55.2747 1.54133 54.352 1.616 53.456C1.70133 52.56 1.792 51.712 1.888 50.912H3.248C3.536 51.3813 3.84533 51.936 4.176 52.576C4.50667 53.216 4.83733 53.888 5.168 54.592C5.49867 55.2853 5.81867 55.984 6.128 56.688C6.43733 57.3813 6.72 58.016 6.976 58.592C7.232 58.016 7.51467 57.3813 7.824 56.688C8.13333 55.984 8.45333 55.2853 8.784 54.592C9.11467 53.888 9.44533 53.216 9.776 52.576C10.1067 51.936 10.416 51.3813 10.704 50.912H12.064C12.4267 54.4853 12.6987 58.1813 12.88 62H11.36C11.3067 60.5067 11.2427 59.0293 11.168 57.568C11.0933 56.096 10.9973 54.7307 10.88 53.472C10.7733 53.6533 10.6293 53.9147 10.448 54.256C10.2773 54.5973 10.0907 54.9867 9.888 55.424C9.68533 55.8507 9.46667 56.3093 9.232 56.8C9.008 57.28 8.79467 57.7493 8.592 58.208C8.38933 58.6667 8.19733 59.0933 8.016 59.488C7.84533 59.8827 7.70667 60.208 7.6 60.464H6.352ZM14.7535 57.856C14.7535 57.12 14.8602 56.48 15.0735 55.936C15.2868 55.3813 15.5695 54.9227 15.9215 54.56C16.2735 54.1973 16.6788 53.9253 17.1375 53.744C17.5962 53.5627 18.0655 53.472 18.5455 53.472C19.6655 53.472 20.5242 53.824 21.1215 54.528C21.7188 55.2213 22.0175 56.2827 22.0175 57.712C22.0175 57.776 22.0175 57.8613 22.0175 57.968C22.0175 58.064 22.0122 58.1547 22.0015 58.24H16.3055C16.3695 59.104 16.6202 59.76 17.0575 60.208C17.4948 60.656 18.1775 60.88 19.1055 60.88C19.6282 60.88 20.0655 60.8373 20.4175 60.752C20.7802 60.656 21.0522 60.5653 21.2335 60.48L21.4415 61.728C21.2602 61.824 20.9402 61.9253 20.4815 62.032C20.0335 62.1387 19.5215 62.192 18.9455 62.192C18.2202 62.192 17.5908 62.0853 17.0575 61.872C16.5348 61.648 16.1028 61.344 15.7615 60.96C15.4202 60.576 15.1642 60.1227 14.9935 59.6C14.8335 59.0667 14.7535 58.4853 14.7535 57.856ZM20.4655 57.04C20.4762 56.368 20.3055 55.8187 19.9535 55.392C19.6122 54.9547 19.1375 54.736 18.5295 54.736C18.1882 54.736 17.8842 54.8053 17.6175 54.944C17.3615 55.072 17.1428 55.2427 16.9615 55.456C16.7802 55.6693 16.6362 55.9147 16.5295 56.192C16.4335 56.4693 16.3695 56.752 16.3375 57.04H20.4655ZM26.091 60.928C26.699 60.928 27.147 60.848 27.435 60.688C27.7337 60.528 27.883 60.272 27.883 59.92C27.883 59.5573 27.739 59.2693 27.451 59.056C27.163 58.8427 26.6883 58.6027 26.027 58.336C25.707 58.208 25.3977 58.08 25.099 57.952C24.811 57.8133 24.5603 57.6533 24.347 57.472C24.1337 57.2907 23.963 57.072 23.835 56.816C23.707 56.56 23.643 56.2453 23.643 55.872C23.643 55.136 23.915 54.5547 24.459 54.128C25.003 53.6907 25.7443 53.472 26.683 53.472C26.9177 53.472 27.1523 53.488 27.387 53.52C27.6217 53.5413 27.8403 53.5733 28.043 53.616C28.2457 53.648 28.4217 53.6853 28.571 53.728C28.731 53.7707 28.8537 53.808 28.939 53.84L28.667 55.12C28.507 55.0347 28.2563 54.9493 27.915 54.864C27.5737 54.768 27.163 54.72 26.683 54.72C26.267 54.72 25.9043 54.8053 25.595 54.976C25.2857 55.136 25.131 55.392 25.131 55.744C25.131 55.9253 25.163 56.0853 25.227 56.224C25.3017 56.3627 25.4083 56.4907 25.547 56.608C25.6963 56.7147 25.8777 56.816 26.091 56.912C26.3043 57.008 26.5603 57.1093 26.859 57.216C27.2537 57.3653 27.6057 57.5147 27.915 57.664C28.2243 57.8027 28.4857 57.968 28.699 58.16C28.923 58.352 29.0937 58.5867 29.211 58.864C29.3283 59.1307 29.387 59.4613 29.387 59.856C29.387 60.624 29.099 61.2053 28.523 61.6C27.9577 61.9947 27.147 62.192 26.091 62.192C25.355 62.192 24.779 62.128 24.363 62C23.947 61.8827 23.6643 61.792 23.515 61.728L23.787 60.448C23.9577 60.512 24.2297 60.608 24.603 60.736C24.9763 60.864 25.4723 60.928 26.091 60.928ZM33.2316 60.928C33.8396 60.928 34.2876 60.848 34.5756 60.688C34.8743 60.528 35.0236 60.272 35.0236 59.92C35.0236 59.5573 34.8796 59.2693 34.5916 59.056C34.3036 58.8427 33.829 58.6027 33.1676 58.336C32.8476 58.208 32.5383 58.08 32.2396 57.952C31.9516 57.8133 31.701 57.6533 31.4876 57.472C31.2743 57.2907 31.1036 57.072 30.9756 56.816C30.8476 56.56 30.7836 56.2453 30.7836 55.872C30.7836 55.136 31.0556 54.5547 31.5996 54.128C32.1436 53.6907 32.885 53.472 33.8236 53.472C34.0583 53.472 34.293 53.488 34.5276 53.52C34.7623 53.5413 34.981 53.5733 35.1836 53.616C35.3863 53.648 35.5623 53.6853 35.7116 53.728C35.8716 53.7707 35.9943 53.808 36.0796 53.84L35.8076 55.12C35.6476 55.0347 35.397 54.9493 35.0556 54.864C34.7143 54.768 34.3036 54.72 33.8236 54.72C33.4076 54.72 33.045 54.8053 32.7356 54.976C32.4263 55.136 32.2716 55.392 32.2716 55.744C32.2716 55.9253 32.3036 56.0853 32.3676 56.224C32.4423 56.3627 32.549 56.4907 32.6876 56.608C32.837 56.7147 33.0183 56.816 33.2316 56.912C33.445 57.008 33.701 57.1093 33.9996 57.216C34.3943 57.3653 34.7463 57.5147 35.0556 57.664C35.365 57.8027 35.6263 57.968 35.8396 58.16C36.0636 58.352 36.2343 58.5867 36.3516 58.864C36.469 59.1307 36.5276 59.4613 36.5276 59.856C36.5276 60.624 36.2396 61.2053 35.6636 61.6C35.0983 61.9947 34.2876 62.192 33.2316 62.192C32.4956 62.192 31.9196 62.128 31.5036 62C31.0876 61.8827 30.805 61.792 30.6556 61.728L30.9276 60.448C31.0983 60.512 31.3703 60.608 31.7436 60.736C32.117 60.864 32.613 60.928 33.2316 60.928ZM45.1883 62C45.0283 61.68 44.8363 61.328 44.6123 60.944C44.3883 60.5493 44.1429 60.144 43.8763 59.728C43.6096 59.3013 43.3323 58.88 43.0443 58.464C42.7563 58.0373 42.4789 57.6373 42.2123 57.264C41.9456 57.6373 41.6683 58.0373 41.3802 58.464C41.0923 58.88 40.8149 59.3013 40.5483 59.728C40.2923 60.144 40.0469 60.5493 39.8123 60.944C39.5883 61.328 39.3963 61.68 39.2363 62H37.5243C38.0043 61.0613 38.5589 60.1067 39.1883 59.136C39.8283 58.1653 40.5056 57.168 41.2203 56.144L37.6683 50.912H39.4603L42.1963 55.04L44.9003 50.912H46.6763L43.1883 56.08C43.9136 57.1147 44.5963 58.1227 45.2362 59.104C45.8762 60.0853 46.4416 61.0507 46.9323 62H45.1883ZM54.306 57.856C54.306 56.8853 54.066 56.1387 53.586 55.616C53.106 55.0933 52.466 54.832 51.666 54.832C51.218 54.832 50.866 54.848 50.61 54.88C50.3647 54.912 50.1673 54.9493 50.018 54.992V60.24C50.1993 60.3893 50.4607 60.5333 50.802 60.672C51.1433 60.8107 51.5167 60.88 51.922 60.88C52.3487 60.88 52.7113 60.8053 53.01 60.656C53.3193 60.496 53.57 60.2827 53.762 60.016C53.954 59.7387 54.0927 59.4187 54.178 59.056C54.2633 58.6827 54.306 58.2827 54.306 57.856ZM55.858 57.856C55.858 58.4853 55.7727 59.0667 55.602 59.6C55.442 60.1333 55.202 60.592 54.882 60.976C54.562 61.36 54.1673 61.6587 53.698 61.872C53.2393 62.0853 52.7113 62.192 52.114 62.192C51.634 62.192 51.2073 62.128 50.834 62C50.4713 61.872 50.1993 61.7493 50.018 61.632V64.96H48.53V53.936C48.882 53.8507 49.3193 53.76 49.842 53.664C50.3753 53.5573 50.9887 53.504 51.682 53.504C52.322 53.504 52.898 53.6053 53.41 53.808C53.922 54.0107 54.3593 54.2987 54.722 54.672C55.0847 55.0453 55.362 55.504 55.554 56.048C55.7567 56.5813 55.858 57.184 55.858 57.856Z" fill="#F2C94C"/>
</svg>
