<svg width="24" height="24" viewBox="0 0 24 24" fill="none" xmlns="http://www.w3.org/2000/svg">
<path d="M10 21H14C14 21.5304 13.7893 22.0391 13.4142 22.4142C13.0391 22.7893 12.5304 23 12 23C11.4696 23 10.9609 22.7893 10.5858 22.4142C10.2107 22.0391 10 21.5304 10 21ZM21 19V20H3V19L5 17V11C4.99961 9.49223 5.48607 8.02464 6.38698 6.81562C7.28788 5.60661 8.55509 4.72079 10 4.29V4C10 3.46957 10.2107 2.96086 10.5858 2.58579C10.9609 2.21071 11.4696 2 12 2C12.5304 2 13.0391 2.21071 13.4142 2.58579C13.7893 2.96086 14 3.46957 14 4V4.29C15.4449 4.72079 16.7121 5.60661 17.613 6.81562C18.5139 8.02464 19.0004 9.49223 19 11V17L21 19ZM17 11C17 9.67392 16.4732 8.40215 15.5355 7.46447C14.5979 6.52678 13.3261 6 12 6C10.6739 6 9.40215 6.52678 8.46447 7.46447C7.52678 8.40215 7 9.67392 7 11V18H17V11ZM11 8H13V12H11V8ZM11 14H13V16H11V14Z" fill="#828282"/>
</svg>
