<svg width="19" height="22" viewBox="0 0 19 22" fill="none" xmlns="http://www.w3.org/2000/svg">
<g clip-path="url(#clip0_1_238)">
<path d="M9.5 10.8571C12.4984 10.8571 14.9286 8.42701 14.9286 5.42857C14.9286 2.43013 12.4984 0 9.5 0C6.50156 0 4.07143 2.43013 4.07143 5.42857C4.07143 8.42701 6.50156 10.8571 9.5 10.8571ZM13.3 12.2143H12.5917C11.6502 12.6469 10.6027 12.8929 9.5 12.8929C8.39732 12.8929 7.35402 12.6469 6.40826 12.2143H5.7C2.55312 12.2143 0 14.7674 0 17.9143V19.6786C0 20.8025 0.91183 21.7143 2.03571 21.7143H16.9643C18.0882 21.7143 19 20.8025 19 19.6786V17.9143C19 14.7674 16.4469 12.2143 13.3 12.2143Z" fill="#F2F2F2"/>
</g>
<defs>
<clipPath id="clip0_1_238">
<rect width="19" height="21.7143" fill="white"/>
</clipPath>
</defs>
</svg>
